<svg width="1099" height="627" xmlns="http://www.w3.org/2000/svg" xmlns:xlink="http://www.w3.org/1999/xlink" overflow="hidden"><defs><clipPath id="clip0"><rect x="56" y="54" width="1099" height="627"/></clipPath></defs><g clip-path="url(#clip0)" transform="translate(-56 -54)"><text font-family="Yu Gothic,Yu Gothic_MSFontService,sans-serif" font-weight="400" font-size="16" transform="translate(110.044 74)">xtUML<tspan font-size="16" x="54" y="0">の</tspan><tspan font-size="16" x="74.5" y="0">OOA</tspan><tspan font-size="16" x="112.667" y="0">of OOA </tspan>の<tspan font-size="16" x="190.333" y="0">C#</tspan><tspan font-size="16" x="215" y="0">クラスライブラリ化</tspan></text><rect x="78.5001" y="216.5" width="274" height="155" stroke="#000000" stroke-width="1.33333" stroke-miterlimit="8" fill="#FFFFFF"/><text font-family="Yu Gothic,Yu Gothic_MSFontService,sans-serif" font-weight="400" font-size="11" transform="translate(176.236 231)">&lt;&lt; interface&gt;&gt;<tspan font-size="11" x="-88.4133" y="13">CIC</tspan><tspan font-style="oblique" font-weight="700" font-size="11" x="-70.58" y="13">ClassName</tspan><tspan font-size="11" x="-11.9133" y="13">Def</tspan><tspan font-style="oblique" font-weight="700" font-size="11" x="-85.4133" y="25">AttrName</tspan><tspan font-size="11" x="-32.4133" y="25">: </tspan><tspan font-style="oblique" font-weight="700" font-size="11" x="-26.4133" y="25">AttrDataType</tspan><tspan font-style="oblique" font-weight="700" font-size="11" x="-85.4133" y="38">…</tspan><tspan font-size="11" x="-85.4133" y="51">LinkedTo</tspan><tspan font-style="oblique" font-weight="700" font-size="11" x="-39.58" y="51">RIndexPhrase</tspan><tspan font-style="oblique" font-weight="700" font-size="11" x="35.92" y="51">: </tspan><tspan font-style="oblique" font-weight="700" font-size="11" x="42.2533" y="51">RelToType</tspan><tspan font-size="11" x="-85.4133" y="64">LinkedFrom</tspan><tspan font-style="oblique" font-weight="700" font-size="11" x="-26.7467" y="64">RIndexPhrase</tspan><tspan font-style="oblique" font-weight="700" font-size="11" x="48.7533" y="64">: </tspan><tspan font-style="oblique" font-weight="700" font-size="11" x="55.0867" y="64">RelFromType</tspan><tspan font-style="oblique" font-weight="700" font-size="11" x="-85.4133" y="77">…</tspan><tspan font-size="11" x="-88.4133" y="89">LinkTo</tspan><tspan font-style="oblique" font-weight="700" font-size="11" x="-54.7467" y="89">RIndexPhrase</tspan><tspan font-size="11" x="17.7533" y="89">(</tspan><tspan font-size="11" x="21.92" y="89">instance:</tspan><tspan font-style="oblique" font-weight="700" font-size="11" x="66.92" y="89">RelToType</tspan>)<tspan font-size="11" x="-88.4133" y="102">LinkFrom</tspan><tspan font-style="oblique" font-weight="700" font-size="11" x="-41.9133" y="102">RIndexPhrase</tspan><tspan font-size="11" x="30.5867" y="102">(</tspan><tspan font-size="11" x="34.7533" y="102">instance:</tspan><tspan font-style="oblique" font-weight="700" font-size="11" x="79.7533" y="102">RelFromType</tspan>)<tspan font-size="11" x="-88.4133" y="115">UnlinkTo</tspan><tspan font-style="oblique" font-weight="700" font-size="11" x="-44.2467" y="115">RIndexPhrase</tspan><tspan font-size="11" x="28.2533" y="115">(</tspan><tspan font-size="11" x="32.42" y="115">instance:</tspan><tspan font-style="oblique" font-weight="700" font-size="11" x="77.42" y="115">RelToType</tspan>)<tspan font-size="11" x="-88.4133" y="128">UnlinkFrom</tspan><tspan font-style="oblique" font-weight="700" font-size="11" x="-31.4133" y="128">RIndexPhrase</tspan><tspan font-size="11" x="41.0867" y="128">(</tspan><tspan font-size="11" x="45.2533" y="128">instance:</tspan><tspan font-style="oblique" font-weight="700" font-size="11" x="90.2533" y="128">RelFromType</tspan>)<tspan font-size="11" x="198.259" y="22">定義されたアトリビュートをプロパティとして</tspan><tspan font-size="11" x="422.259" y="22">生成。</tspan>Identities<tspan font-size="11" x="503.592" y="22">に含まれる属性も宣言</tspan></text><path d="M2.99058e-07-0.333333 110.353-0.333234 110.353 0.333432-2.99058e-07 0.333333ZM109.02-3.9999 117.02 0.000104987 109.02 4.0001Z" fill="#4472C4" transform="matrix(-1 0 0 1 365.52 250.5)"/><text font-family="Yu Gothic,Yu Gothic_MSFontService,sans-serif" font-weight="400" font-size="11" transform="translate(424.234 289)">定義された<tspan font-size="11" x="56.3333" y="0">Relationship </tspan><tspan font-size="11" x="120.833" y="0">全てについて、</tspan><tspan font-size="11" x="195.5" y="0">To</tspan><tspan font-size="11" x="211.167" y="0">From</tspan><tspan font-size="11" x="239.667" y="0">両方をプロパティとして生成</tspan><tspan font-size="11" x="0" y="13">1</tspan>、１<tspan font-size="11" x="27.3333" y="13">C</tspan><tspan font-size="11" x="34.6667" y="13">の場合は、オブジェクト参照形式、</tspan><tspan font-size="11" x="205.333" y="13">M</tspan><tspan font-size="11" x="215.167" y="13">、</tspan><tspan font-size="11" x="225.833" y="13">MC</tspan><tspan font-size="11" x="243" y="13">の場合は、リスト形式に</tspan><tspan font-size="11" x="360.333" y="13">する</tspan><tspan font-size="11" x="0" y="25">リスト形式の場合、</tspan><tspan font-size="11" x="96" y="25">Lock</tspan>して都度都度新しいReadOnlyのリストを作って返す</text><path d="M414.902 299.521 340.127 294.297 340.174 293.632 414.949 298.855ZM341.202 298.048 333.5 293.5 341.759 290.067Z" fill="#4472C4"/><text font-family="Yu Gothic,Yu Gothic_MSFontService,sans-serif" font-weight="400" font-size="11" transform="translate(383.521 340)">メソッド内で相手の<tspan font-size="11" x="96" y="0">RelateToXXX</tspan><tspan font-size="11" x="164" y="0">をコールし、</tspan>Link<tspan font-size="11" x="252" y="0">を完成させる。</tspan><tspan font-size="11" x="326.667" y="0">Lock</tspan>必要</text><rect x="112.5" y="424.5" width="206" height="45" stroke="#000000" stroke-width="1.33333" stroke-miterlimit="8" fill="#FFFFFF"/><text font-family="Yu Gothic,Yu Gothic_MSFontService,sans-serif" font-weight="400" font-size="11" transform="translate(179.385 444)">&lt;&lt;abstract&gt;&gt;<tspan font-size="11" x="-2.58667" y="13">CIC</tspan><tspan font-style="oblique" font-weight="700" font-size="11" x="15.2467" y="13">ClassName</tspan></text><path d="M207.5 385.5 215.5 371.5 223.5 385.5Z" stroke="#000000" stroke-width="1.33333" stroke-miterlimit="8" fill="#FFFFFF" fill-rule="evenodd"/><path d="M215.5 385.5 215.5 424.085" stroke="#000000" stroke-width="0.666667" stroke-miterlimit="8" stroke-dasharray="0.666667 0.666667" fill="none" fill-rule="evenodd"/><text font-family="Yu Gothic,Yu Gothic_MSFontService,sans-serif" font-weight="400" font-size="11" transform="translate(339.469 439)">ユーザーはこのクラスを使う<tspan font-size="11" x="138.667" y="0">。</tspan></text><rect x="434.5" y="482.5" width="399" height="90" stroke="#000000" stroke-width="1.33333" stroke-miterlimit="8" fill="#FFFFFF"/><text font-family="Yu Gothic,Yu Gothic_MSFontService,sans-serif" font-weight="400" font-size="11" transform="translate(597.75 512)">&lt;&lt;abstract&gt;&gt;<tspan font-size="11" x="-15" y="13">CICModelRepository</tspan><tspan font-size="11" x="-154.167" y="25">GetCIClasses</tspan><tspan font-size="11" x="-87.5" y="25">(</tspan><tspan font-size="11" x="-83.3333" y="25">domainName</tspan>, <tspan font-size="11" x="-12" y="25">className</tspan><tspan font-size="11" x="42.5" y="25">): </tspan><tspan font-size="11" x="52.6667" y="25">Ienumerable</tspan>&lt;<tspan font-size="11" x="121.833" y="25">CICIdentifiedDef</tspan><tspan font-size="11" x="204.167" y="25">&gt;</tspan><tspan font-size="11" x="-154.167" y="38">CreateCIClass</tspan><tspan font-size="11" x="-83.5" y="38">(</tspan><tspan font-size="11" x="-79.3333" y="38">domainName</tspan>,<tspan font-size="11" x="-8" y="38">className</tspan><tspan font-size="11" x="46.5" y="38">):</tspan><tspan font-size="11" x="56.6667" y="38">CICIdentifiedDe</tspan><tspan font-size="11" x="135.333" y="38">f</tspan><tspan font-size="11" x="244.76" y="26">クラス毎にインスタンスセットを取り出せるようにする</tspan></text><rect x="100.5" y="116.5" width="252" height="62" stroke="#000000" stroke-width="1.33333" stroke-miterlimit="8" fill="#FFFFFF"/><text font-family="Yu Gothic,Yu Gothic_MSFontService,sans-serif" font-weight="400" font-size="11" transform="translate(187.378 131)">&lt;&lt; interface&gt;&gt;<tspan font-size="11" x="-77.3333" y="13">CIIdentifiedClassDef</tspan><tspan font-size="11" x="27.8333" y="13">: </tspan>IDisposable<tspan font-size="11" x="-74.3333" y="25">Identities </tspan><tspan font-size="11" x="-25" y="25">: </tspan>IReadOnlyList<tspan font-size="11" x="50.1667" y="25">&lt;string&gt;</tspan><tspan font-size="11" x="-74.3333" y="38">validate() :</tspan><tspan font-size="11" x="-18.1667" y="38">boo</tspan><tspan font-size="11" x="0" y="38">l</tspan></text><path d="M218.5 193.5 226.5 179.5 234.5 193.5Z" stroke="#000000" stroke-width="1.33333" stroke-miterlimit="8" fill="#FFFFFF" fill-rule="evenodd"/><path d="M0 0 11.1111 23.2186" stroke="#000000" stroke-width="0.666667" stroke-miterlimit="8" fill="none" fill-rule="evenodd" transform="matrix(-1 0 0 1 226.611 193.5)"/><rect x="112.5" y="529.5" width="206" height="45" stroke="#000000" stroke-width="1.33333" stroke-miterlimit="8" fill="#FFFFFF"/><text font-family="Yu Gothic,Yu Gothic_MSFontService,sans-serif" font-weight="400" font-size="11" transform="translate(164.465 555)">CIC<tspan font-style="oblique" font-weight="700" font-size="11" x="17.8333" y="0">ClassName</tspan>Base</text><path d="M207.5 484.5 215.5 470.5 223.5 484.5Z" stroke="#000000" stroke-width="1.33333" stroke-miterlimit="8" fill="#FFFFFF" fill-rule="evenodd"/><path d="M215.5 484.5 215.5 529.18" stroke="#000000" stroke-width="0.666667" stroke-miterlimit="8" fill="none" fill-rule="evenodd"/><text font-family="Yu Gothic,Yu Gothic_MSFontService,sans-serif" font-weight="400" font-size="11" transform="translate(66.1248 593)">In<tspan font-size="11" x="12.3333" y="0">Memory</tspan><tspan font-size="11" x="55.5" y="0">のデフォルト実装</tspan><tspan font-size="11" x="317.396" y="-440">Dispose </tspan>の際、<tspan font-size="11" x="392.396" y="-440">Link</tspan>が残っていたら<tspan font-size="11" x="491.063" y="-440">Exception</tspan></text><path d="M0.0685168-0.326216 115.69 23.9585 115.553 24.6109-0.0685168 0.326216ZM108.976 17.8261 116.27 24.4208 106.939 27.5237C106.765 27.5818 106.576 27.4873 106.518 27.3126 106.46 27.1379 106.554 26.9492 106.729 26.8911L115.517 23.9685 115.399 24.5321 108.529 18.3206C108.392 18.1972 108.382 17.9864 108.505 17.8498 108.629 17.7133 108.84 17.7027 108.976 17.8261Z" transform="matrix(1 0 0 -1 318.5 551.921)"/><rect x="434.5" y="616.5" width="399" height="63" stroke="#000000" stroke-width="1.33333" stroke-miterlimit="8" fill="#FFFFFF"/><text font-family="Yu Gothic,Yu Gothic_MSFontService,sans-serif" font-weight="400" font-size="11" transform="translate(572.083 632)">CICModelRepositoryImpl<tspan font-size="11" x="-128.5" y="13">ClC</tspan><tspan font-style="oblique" font-weight="700" font-size="11" x="-111" y="13">ClassName</tspan><tspan font-size="11" x="-52.3333" y="13">DefInstances</tspan><tspan font-size="11" x="16.1667" y="13">: </tspan>IDictionary&lt;string,<tspan font-size="11" x="117.167" y="13">CIC</tspan><tspan font-style="oblique" font-weight="700" font-size="11" x="135" y="13">ClassName</tspan><tspan font-size="11" x="193.667" y="13">Def</tspan><tspan font-size="11" x="211.333" y="13">&gt;;</tspan><tspan font-size="11" x="-128.5" y="25">…</tspan><tspan font-size="11" x="270.427" y="6">クラス毎にインスタンスセット</tspan>を<tspan font-size="11" x="430.427" y="6">プロパティと</tspan>して用意する</text><path d="M625.5 586.5 633.5 572.5 641.5 586.5Z" stroke="#000000" stroke-width="1.33333" stroke-miterlimit="8" fill="#FFFFFF" fill-rule="evenodd"/><path d="M633.5 586.5 633.5 617.307" stroke="#000000" stroke-width="0.666667" stroke-miterlimit="8" fill="none" fill-rule="evenodd"/><path d="M434.435 648.569 432.435 648.569 432.435 647.903 434.435 647.903ZM431.768 648.569 429.768 648.569 429.768 647.903 431.768 647.903ZM429.102 648.569 427.102 648.569 427.102 647.903 429.102 647.903ZM426.435 648.569 424.435 648.569 424.435 647.903 426.435 647.903ZM423.768 648.569 421.768 648.569 421.768 647.903 423.768 647.903ZM421.102 648.569 419.102 648.569 419.102 647.903 421.102 647.903ZM418.435 648.569 416.435 648.569 416.435 647.903 418.435 647.903ZM415.768 648.569 413.768 648.569 413.768 647.903 415.768 647.903ZM413.102 648.569 411.102 648.569 411.102 647.903 413.102 647.903ZM410.435 648.569 408.435 648.569 408.435 647.903 410.435 647.903ZM407.768 648.569 405.768 648.569 405.768 647.903 407.768 647.903ZM405.102 648.569 403.102 648.569 403.102 647.903 405.102 647.903ZM402.435 648.569 400.435 648.569 400.435 647.903 402.435 647.903ZM399.768 648.569 397.768 648.569 397.768 647.903 399.768 647.903ZM397.102 648.569 395.102 648.569 395.102 647.903 397.102 647.903ZM394.435 648.569 392.435 648.569 392.435 647.903 394.435 647.903ZM391.768 648.569 389.768 648.569 389.768 647.903 391.768 647.903ZM389.102 648.569 387.102 648.569 387.102 647.903 389.102 647.903ZM386.435 648.569 384.435 648.569 384.435 647.903 386.435 647.903ZM383.768 648.569 381.768 648.569 381.768 647.903 383.768 647.903ZM381.102 648.569 379.102 648.569 379.102 647.903 381.102 647.903ZM378.435 648.569 376.435 648.569 376.435 647.903 378.435 647.903ZM375.768 648.569 373.768 648.569 373.768 647.903 375.768 647.903ZM373.102 648.569 371.102 648.569 371.102 647.903 373.102 647.903ZM370.435 648.569 368.435 648.569 368.435 647.903 370.435 647.903ZM367.768 648.569 365.768 648.569 365.768 647.903 367.768 647.903ZM365.102 648.569 363.102 648.569 363.102 647.903 365.102 647.903ZM362.435 648.569 360.435 648.569 360.435 647.903 362.435 647.903ZM359.768 648.569 357.768 648.569 357.768 647.903 359.768 647.903ZM357.102 648.569 355.102 648.569 355.102 647.903 357.102 647.903ZM354.435 648.569 352.435 648.569 352.435 647.903 354.435 647.903ZM351.768 648.569 349.768 648.569 349.768 647.903 351.768 647.903ZM349.102 648.569 347.102 648.569 347.102 647.903 349.102 647.903ZM346.435 648.569 344.435 648.569 344.435 647.903 346.435 647.903ZM343.768 648.569 341.768 648.569 341.768 647.903 343.768 647.903ZM341.102 648.569 339.102 648.569 339.102 647.903 341.102 647.903ZM338.435 648.569 336.435 648.569 336.435 647.903 338.435 647.903ZM335.768 648.569 333.768 648.569 333.768 647.903 335.768 647.903ZM333.102 648.569 331.102 648.569 331.102 647.903 333.102 647.903ZM330.435 648.569 328.435 648.569 328.435 647.903 330.435 647.903ZM327.768 648.569 325.768 648.569 325.768 647.903 327.768 647.903ZM325.102 648.569 323.102 648.569 323.102 647.903 325.102 647.903ZM322.435 648.569 320.435 648.569 320.435 647.903 322.435 647.903ZM319.768 648.569 317.768 648.569 317.768 647.903 319.768 647.903ZM317.102 648.569 315.102 648.569 315.102 647.903 317.102 647.903ZM314.435 648.569 312.435 648.569 312.435 647.903 314.435 647.903ZM311.768 648.569 309.768 648.569 309.768 647.903 311.768 647.903ZM309.102 648.569 307.102 648.569 307.102 647.903 309.102 647.903ZM306.435 648.569 304.435 648.569 304.435 647.903 306.435 647.903ZM303.768 648.569 301.768 648.569 301.768 647.903 303.768 647.903ZM301.102 648.569 299.102 648.569 299.102 647.903 301.102 647.903ZM298.435 648.569 296.435 648.569 296.435 647.903 298.435 647.903ZM295.768 648.569 293.768 648.569 293.768 647.903 295.768 647.903ZM293.102 648.569 291.102 648.569 291.102 647.903 293.102 647.903ZM290.435 648.569 288.435 648.569 288.435 647.903 290.435 647.903ZM287.768 648.569 285.768 648.569 285.768 647.903 287.768 647.903ZM285.102 648.569 283.102 648.569 283.102 647.903 285.102 647.903ZM282.435 648.569 280.435 648.569 280.435 647.903 282.435 647.903ZM279.768 648.569 277.768 648.569 277.768 647.903 279.768 647.903ZM277.102 648.569 275.102 648.569 275.102 647.903 277.102 647.903ZM274.435 648.569 272.435 648.569 272.435 647.903 274.435 647.903ZM271.768 648.569 269.768 648.569 269.768 647.903 271.768 647.903ZM269.102 648.569 267.102 648.569 267.102 647.903 269.102 647.903ZM266.435 648.569 264.435 648.569 264.435 647.903 266.435 647.903ZM263.768 648.569 261.768 648.569 261.768 647.903 263.768 647.903ZM261.102 648.569 259.102 648.569 259.102 647.903 261.102 647.903ZM258.435 648.569 256.435 648.569 256.435 647.903 258.435 647.903ZM255.768 648.569 253.768 648.569 253.768 647.903 255.768 647.903ZM253.102 648.569 251.102 648.569 251.102 647.903 253.102 647.903ZM250.435 648.569 248.435 648.569 248.435 647.903 250.435 647.903ZM247.768 648.569 245.768 648.569 245.768 647.903 247.768 647.903ZM245.102 648.569 243.102 648.569 243.102 647.903 245.102 647.903ZM242.435 648.569 240.435 648.569 240.435 647.903 242.435 647.903ZM239.768 648.569 237.768 648.569 237.768 647.903 239.768 647.903ZM237.102 648.569 235.102 648.569 235.102 647.903 237.102 647.903ZM234.435 648.569 232.435 648.569 232.435 647.903 234.435 647.903ZM231.768 648.569 229.768 648.569 229.768 647.903 231.768 647.903ZM229.102 648.569 227.102 648.569 227.102 647.903 229.102 647.903ZM226.435 648.569 224.435 648.569 224.435 647.903 226.435 647.903ZM223.768 648.569 221.768 648.569 221.768 647.903 223.768 647.903ZM221.102 648.569 219.102 648.569 219.102 647.903 221.102 647.903ZM218.435 648.569 216.435 648.569 216.435 647.903 218.435 647.903ZM215.768 648.569 215.167 648.569 215.167 646.504 215.833 646.504 215.833 648.236 215.5 647.903 215.768 647.903ZM215.167 645.838 215.167 643.838 215.833 643.838 215.833 645.838ZM215.167 643.171 215.167 641.171 215.833 641.171 215.833 643.171ZM215.167 640.504 215.167 638.504 215.833 638.504 215.833 640.504ZM215.167 637.838 215.167 635.838 215.833 635.838 215.833 637.838ZM215.167 635.171 215.167 633.171 215.833 633.171 215.833 635.171ZM215.167 632.504 215.167 630.504 215.833 630.504 215.833 632.504ZM215.167 629.838 215.167 627.838 215.833 627.838 215.833 629.838ZM215.167 627.171 215.167 625.171 215.833 625.171 215.833 627.171ZM215.167 624.504 215.167 622.504 215.833 622.504 215.833 624.504ZM215.167 621.838 215.167 619.838 215.833 619.838 215.833 621.838ZM215.167 619.171 215.167 617.171 215.833 617.171 215.833 619.171ZM215.167 616.504 215.167 614.504 215.833 614.504 215.833 616.504ZM215.167 613.838 215.167 611.838 215.833 611.838 215.833 613.838ZM215.167 611.171 215.167 609.171 215.833 609.171 215.833 611.171ZM215.167 608.504 215.167 606.504 215.833 606.504 215.833 608.504ZM215.167 605.838 215.167 603.838 215.833 603.838 215.833 605.838ZM215.167 603.171 215.167 601.171 215.833 601.171 215.833 603.171ZM215.167 600.504 215.167 598.504 215.833 598.504 215.833 600.504ZM215.167 597.838 215.167 595.838 215.833 595.838 215.833 597.838ZM215.167 595.171 215.167 593.171 215.833 593.171 215.833 595.171ZM215.167 592.504 215.167 590.504 215.833 590.504 215.833 592.504ZM215.167 589.838 215.167 587.838 215.833 587.838 215.833 589.838ZM215.167 587.171 215.167 585.171 215.833 585.171 215.833 587.171ZM215.167 584.504 215.167 582.504 215.833 582.504 215.833 584.504ZM215.167 581.838 215.167 579.838 215.833 579.838 215.833 581.838ZM215.167 579.171 215.167 577.171 215.833 577.171 215.833 579.171ZM215.167 576.504 215.167 575.16 215.833 575.16 215.833 576.504ZM210.545 582.992 215.5 574.499 220.455 582.992C220.547 583.151 220.494 583.355 220.335 583.448 220.176 583.541 219.972 583.487 219.879 583.328L215.212 575.328 215.788 575.328 211.121 583.328C211.029 583.487 210.824 583.541 210.665 583.448 210.506 583.355 210.453 583.151 210.545 582.992Z"/><rect x="715.5" y="379.5" width="399" height="63" stroke="#000000" stroke-width="1.33333" stroke-miterlimit="8" fill="#FFFFFF"/><text font-family="Yu Gothic,Yu Gothic_MSFontService,sans-serif" font-weight="400" font-size="11" transform="translate(846.139 408)">CICModelRepositoryBuilder<tspan font-size="11" x="-121.667" y="13">CreateCICModelRepository</tspan><tspan font-size="11" x="12.6667" y="13">();</tspan></text></g></svg>