<svg width="1270" height="638" xmlns="http://www.w3.org/2000/svg" xmlns:xlink="http://www.w3.org/1999/xlink" overflow="hidden"><defs><clipPath id="clip0"><rect x="-1" y="54" width="1270" height="638"/></clipPath></defs><g clip-path="url(#clip0)" transform="translate(1 -54)"><text font-family="Yu Gothic,Yu Gothic_MSFontService,sans-serif" font-weight="400" font-size="16" transform="translate(110.044 74)">xtUML<tspan font-size="16" x="54" y="0">の</tspan><tspan font-size="16" x="74.5" y="0">OOA</tspan><tspan font-size="16" x="112.667" y="0">of OOA </tspan>の<tspan font-size="16" x="190.333" y="0">C#</tspan><tspan font-size="16" x="215" y="0">クラスライブラリ化</tspan></text><rect x="78.5001" y="216.5" width="274" height="155" stroke="#000000" stroke-width="1.33333" stroke-miterlimit="8" fill="#FFFFFF"/><text font-family="Yu Gothic,Yu Gothic_MSFontService,sans-serif" font-weight="400" font-size="11" transform="translate(176.236 231)">&lt;&lt; interface&gt;&gt;<tspan font-size="11" x="-8.33334" y="13">CIC</tspan><tspan font-style="oblique" font-weight="700" font-size="11" x="9.5" y="13">ClassName</tspan>Def<tspan font-style="oblique" font-weight="700" font-size="11" x="-85.4133" y="25">AttrName</tspan><tspan font-size="11" x="-32.4133" y="25">: </tspan><tspan font-style="oblique" font-weight="700" font-size="11" x="-26.4133" y="25">AttrDataType</tspan><tspan font-style="oblique" font-weight="700" font-size="11" x="-85.4133" y="38">…</tspan><tspan font-size="11" x="-85.4133" y="51">LinkedTo</tspan><tspan font-style="oblique" font-weight="700" font-size="11" x="-39.58" y="51">RIndexPhrase</tspan><tspan font-style="oblique" font-weight="700" font-size="11" x="35.92" y="51">: </tspan><tspan font-style="oblique" font-weight="700" font-size="11" x="42.2533" y="51">RelToType</tspan><tspan font-size="11" x="-85.4133" y="64">LinkedFrom</tspan><tspan font-style="oblique" font-weight="700" font-size="11" x="-26.7467" y="64">RIndexPhrase</tspan><tspan font-style="oblique" font-weight="700" font-size="11" x="48.7533" y="64">: </tspan><tspan font-style="oblique" font-weight="700" font-size="11" x="55.0867" y="64">RelFromType</tspan><tspan font-style="oblique" font-weight="700" font-size="11" x="-85.4133" y="77">…</tspan><tspan font-size="11" x="-88.4133" y="89">LinkTo</tspan><tspan font-style="oblique" font-weight="700" font-size="11" x="-54.7467" y="89">RIndexPhrase</tspan><tspan font-size="11" x="17.7533" y="89">(</tspan><tspan font-size="11" x="21.92" y="89">instance:</tspan><tspan font-style="oblique" font-weight="700" font-size="11" x="66.92" y="89">RelToType</tspan>)<tspan font-size="11" x="-88.4133" y="102">LinkFrom</tspan><tspan font-style="oblique" font-weight="700" font-size="11" x="-41.9133" y="102">RIndexPhrase</tspan><tspan font-size="11" x="30.5867" y="102">(</tspan><tspan font-size="11" x="34.7533" y="102">instance:</tspan><tspan font-style="oblique" font-weight="700" font-size="11" x="79.7533" y="102">RelFromType</tspan>)<tspan font-size="11" x="-88.4133" y="115">UnlinkTo</tspan><tspan font-style="oblique" font-weight="700" font-size="11" x="-44.2467" y="115">RIndexPhrase</tspan><tspan font-size="11" x="28.2533" y="115">(</tspan><tspan font-size="11" x="32.42" y="115">instance:</tspan><tspan font-style="oblique" font-weight="700" font-size="11" x="77.42" y="115">RelToType</tspan>)<tspan font-size="11" x="-88.4133" y="128">UnlinkFrom</tspan><tspan font-style="oblique" font-weight="700" font-size="11" x="-31.4133" y="128">RIndexPhrase</tspan><tspan font-size="11" x="41.0867" y="128">(</tspan><tspan font-size="11" x="45.2533" y="128">instance:</tspan><tspan font-style="oblique" font-weight="700" font-size="11" x="90.2533" y="128">RelFromType</tspan>)<tspan font-size="11" x="196.35" y="-19">定義されたアトリビュートをプロパティとして</tspan><tspan font-size="11" x="420.35" y="-19">生成。</tspan>Identities<tspan font-size="11" x="501.684" y="-19">に含まれる属性も宣言</tspan></text><path d="M0.0955747-0.319338 130.535 38.7199 130.344 39.3586-0.0955747 0.319338ZM130.309 34.8249 136.826 40.9508 128.015 42.489Z" fill="#4472C4" transform="matrix(-1 0 0 1 363.326 209.5)"/><text font-family="Yu Gothic,Yu Gothic_MSFontService,sans-serif" font-weight="400" font-size="11" transform="translate(408.741 243)">定義された<tspan font-size="11" x="56.3333" y="0">Relationship </tspan><tspan font-size="11" x="120.833" y="0">全てについて、</tspan><tspan font-size="11" x="195.5" y="0">To</tspan><tspan font-size="11" x="211.167" y="0">From</tspan><tspan font-size="11" x="239.667" y="0">両方をプロパティとして生成</tspan><tspan font-size="11" x="0" y="13">1</tspan>、１<tspan font-size="11" x="27.3333" y="13">C</tspan><tspan font-size="11" x="34.6667" y="13">の場合は、オブジェクト参照形式、</tspan><tspan font-size="11" x="205.333" y="13">M</tspan><tspan font-size="11" x="215.167" y="13">、</tspan><tspan font-size="11" x="225.833" y="13">MC</tspan><tspan font-size="11" x="243" y="13">の場合は、リスト形式に</tspan><tspan font-size="11" x="360.333" y="13">する</tspan><tspan font-size="11" x="0" y="25">リスト形式の場合、</tspan><tspan font-size="11" x="96" y="25">Lock</tspan>して都度都度新しいReadOnlyのリストを作って返す</text><path d="M0.078986-0.32384 100.299 24.1202 100.141 24.7678-0.078986 0.32384ZM99.872 20.242 106.696 26.0237 97.9764 28.0141Z" fill="#4472C4" transform="matrix(-1 0 0 1 399.196 252.5)"/><text font-family="Yu Gothic,Yu Gothic_MSFontService,sans-serif" font-weight="400" font-size="11" transform="translate(376.586 305)">メソッド内で相手の<tspan font-size="11" x="96" y="0">RelateToXXX</tspan><tspan font-size="11" x="164" y="0">をコールし、</tspan>Link<tspan font-size="11" x="252" y="0">を完成させる。</tspan><tspan font-size="11" x="326.667" y="0">Lock</tspan>必要<tspan font-size="11" x="0" y="13">これら</tspan>は多重度の定義によって宣言・非宣言が変わる<tspan font-size="11" x="256" y="13">→ </tspan><tspan font-size="11" x="269.667" y="13">OOA of OOA</tspan>のモデルの場合は、一括で属性値付きでインスタンスをロードするので、<tspan font-size="11" x="682.667" y="13">Link</tspan>、<tspan font-size="11" x="714.333" y="13">Unlink</tspan>のメソッドは必要ない</text><rect x="64.5001" y="421.5" width="205" height="46" stroke="#000000" stroke-width="1.33333" stroke-miterlimit="8" fill="#FFFFFF"/><text font-family="Yu Gothic,Yu Gothic_MSFontService,sans-serif" font-weight="400" font-size="11" transform="translate(128.951 441)">&lt;&lt;interface&gt;&gt;<tspan font-size="11" x="-0.999992" y="13">CIC</tspan><tspan font-style="oblique" font-weight="700" font-size="11" x="16.8333" y="13">ClassName</tspan></text><path d="M207.5 385.5 215.5 371.5 223.5 385.5Z" stroke="#000000" stroke-width="1.33333" stroke-miterlimit="8" fill="#FFFFFF" fill-rule="evenodd"/><path d="M0 0 48.8476 35.8491" stroke="#000000" stroke-width="0.666667" stroke-miterlimit="8" stroke-dasharray="0.666667 0.666667" fill="none" fill-rule="evenodd" transform="matrix(-1 0 0 1 215.348 385.5)"/><text font-family="Yu Gothic,Yu Gothic_MSFontService,sans-serif" font-weight="400" font-size="11" transform="translate(9.6 410)">ユーザーはこのクラスを使う。</text><rect x="500.5" y="494.5" width="399" height="89" stroke="#000000" stroke-width="1.33333" stroke-miterlimit="8" fill="#FFFFFF"/><text font-family="Yu Gothic,Yu Gothic_MSFontService,sans-serif" font-weight="400" font-size="11" transform="translate(663.815 516)">&lt;&lt;abstract&gt;&gt;<tspan font-size="11" x="-11.3333" y="13">CIModelRepository</tspan><tspan font-size="11" x="-154.167" y="25">GetCIClasses</tspan><tspan font-size="11" x="-87.5" y="25">(</tspan><tspan font-size="11" x="-83.3333" y="25">domainName</tspan>, <tspan font-size="11" x="-12" y="25">className</tspan><tspan font-size="11" x="42.5" y="25">): </tspan><tspan font-size="11" x="52.6667" y="25">Ienumerable</tspan>&lt;<tspan font-size="11" x="121.833" y="25">CIClassDef</tspan><tspan font-size="11" x="177.167" y="25">&gt;</tspan><tspan font-size="11" x="-154.167" y="38">CreateCIClass</tspan><tspan font-size="11" x="-83.5" y="38">(</tspan><tspan font-size="11" x="-79.3333" y="38">domainName</tspan>,<tspan font-size="11" x="-8" y="38">className</tspan><tspan font-size="11" x="46.5" y="38">):</tspan><tspan font-size="11" x="56.6667" y="38">CIClassDef</tspan><tspan font-size="11" x="-154.167" y="51">DeleteCIInstance</tspan><tspan font-size="11" x="-68.6667" y="51">(</tspan><tspan font-size="11" x="-64.5" y="51">instance:CIClassDef</tspan><tspan font-size="11" x="35.8333" y="51">)</tspan><tspan font-size="11" x="244.76" y="34">クラス毎にインスタンスセットを取り出せるようにする</tspan></text><rect x="100.5" y="105.5" width="252" height="73" stroke="#000000" stroke-width="1.33333" stroke-miterlimit="8" fill="#FFFFFF"/><text font-family="Yu Gothic,Yu Gothic_MSFontService,sans-serif" font-weight="400" font-size="11" transform="translate(187.378 120)">&lt;&lt; interface&gt;&gt;<tspan font-size="11" x="-22.5" y="13">CIClassDef</tspan><tspan font-size="11" x="35.8333" y="13">: </tspan>IDisposable<tspan font-size="11" x="-77.3333" y="25">DomainName</tspan><tspan font-size="11" x="-77.3333" y="38">ClassNam</tspan>e<tspan font-size="11" x="-77.3333" y="51">validate() :</tspan><tspan font-size="11" x="-21.1667" y="51">boo</tspan><tspan font-size="11" x="-3" y="51">l</tspan></text><path d="M218.5 193.5 226.5 179.5 234.5 193.5Z" stroke="#000000" stroke-width="1.33333" stroke-miterlimit="8" fill="#FFFFFF" fill-rule="evenodd"/><path d="M0 0 11.1111 23.2186" stroke="#000000" stroke-width="0.666667" stroke-miterlimit="8" fill="none" fill-rule="evenodd" transform="matrix(-1 0 0 1 226.611 193.5)"/><rect x="178.5" y="540.5" width="206" height="46" stroke="#000000" stroke-width="1.33333" stroke-miterlimit="8" fill="#FFFFFF"/><text font-family="Yu Gothic,Yu Gothic_MSFontService,sans-serif" font-weight="400" font-size="11" transform="translate(230.53 567)">CIC<tspan font-style="oblique" font-weight="700" font-size="11" x="17.8333" y="0">ClassName</tspan>Base</text><path d="M158.5 481.5 166.5 468.5 174.5 481.5Z" stroke="#000000" stroke-width="1.33333" stroke-miterlimit="8" fill="#FFFFFF" fill-rule="evenodd"/><path d="M166.5 481.5 281.412 540.307" stroke="#000000" stroke-width="0.666667" stroke-miterlimit="8" fill="none" fill-rule="evenodd"/><text font-family="Yu Gothic,Yu Gothic_MSFontService,sans-serif" font-weight="400" font-size="11" transform="translate(132.19 605)">In<tspan font-size="11" x="12.3333" y="0">Memory</tspan><tspan font-size="11" x="55.5" y="0">のデフォルト実装</tspan><tspan font-size="11" x="251.331" y="-452">Dispose </tspan>の際、<tspan font-size="11" x="326.331" y="-452">Link</tspan>が残っていたら<tspan font-size="11" x="424.998" y="-452">Exception</tspan></text><path d="M502.585 442.178 699.653 494.151 699.483 494.796 502.415 442.822ZM693.256 487.685 700.206 494.642 690.73 497.266C690.552 497.316 690.368 497.212 690.319 497.034 690.27 496.857 690.374 496.673 690.552 496.624L699.477 494.152 699.33 494.708 692.785 488.156C692.655 488.026 692.655 487.815 692.785 487.685 692.915 487.555 693.126 487.555 693.256 487.685Z"/><rect x="500.5" y="628.5" width="399" height="63" stroke="#000000" stroke-width="1.33333" stroke-miterlimit="8" fill="#FFFFFF"/><text font-family="Yu Gothic,Yu Gothic_MSFontService,sans-serif" font-weight="400" font-size="11" transform="translate(638.148 644)">CICModelRepositoryImpl<tspan font-size="11" x="-128.5" y="13">ClC</tspan><tspan font-style="oblique" font-weight="700" font-size="11" x="-111" y="13">ClassName</tspan><tspan font-size="11" x="-52.3333" y="13">DefInstances</tspan><tspan font-size="11" x="16.1667" y="13">: </tspan>IDictionary&lt;string,<tspan font-size="11" x="117.167" y="13">CIC</tspan><tspan font-style="oblique" font-weight="700" font-size="11" x="135" y="13">ClassName</tspan><tspan font-size="11" x="193.667" y="13">Def</tspan><tspan font-size="11" x="211.333" y="13">&gt;;</tspan><tspan font-size="11" x="-128.5" y="25">…</tspan><tspan font-size="11" x="270.427" y="6">クラス毎にインスタンスセット</tspan>を<tspan font-size="11" x="430.427" y="6">プロパティと</tspan>して用意する</text><path d="M691.5 597.5 700 583.5 708.5 597.5Z" stroke="#000000" stroke-width="1.33333" stroke-miterlimit="8" fill="#FFFFFF" fill-rule="evenodd"/><path d="M700.5 597.5 700.5 628.307" stroke="#000000" stroke-width="0.666667" stroke-miterlimit="8" fill="none" fill-rule="evenodd"/><path d="M500.435 660.569 498.435 660.569 498.435 659.903 500.435 659.903ZM497.768 660.569 495.768 660.569 495.768 659.903 497.768 659.903ZM495.102 660.569 493.102 660.569 493.102 659.903 495.102 659.903ZM492.435 660.569 490.435 660.569 490.435 659.903 492.435 659.903ZM489.768 660.569 487.768 660.569 487.768 659.903 489.768 659.903ZM487.102 660.569 485.102 660.569 485.102 659.903 487.102 659.903ZM484.435 660.569 482.435 660.569 482.435 659.903 484.435 659.903ZM481.768 660.569 479.768 660.569 479.768 659.903 481.768 659.903ZM479.102 660.569 477.102 660.569 477.102 659.903 479.102 659.903ZM476.435 660.569 474.435 660.569 474.435 659.903 476.435 659.903ZM473.768 660.569 471.768 660.569 471.768 659.903 473.768 659.903ZM471.102 660.569 469.102 660.569 469.102 659.903 471.102 659.903ZM468.435 660.569 466.435 660.569 466.435 659.903 468.435 659.903ZM465.768 660.569 463.768 660.569 463.768 659.903 465.768 659.903ZM463.102 660.569 461.102 660.569 461.102 659.903 463.102 659.903ZM460.435 660.569 458.435 660.569 458.435 659.903 460.435 659.903ZM457.768 660.569 455.768 660.569 455.768 659.903 457.768 659.903ZM455.102 660.569 453.102 660.569 453.102 659.903 455.102 659.903ZM452.435 660.569 450.435 660.569 450.435 659.903 452.435 659.903ZM449.768 660.569 447.768 660.569 447.768 659.903 449.768 659.903ZM447.102 660.569 445.102 660.569 445.102 659.903 447.102 659.903ZM444.435 660.569 442.435 660.569 442.435 659.903 444.435 659.903ZM441.768 660.569 439.768 660.569 439.768 659.903 441.768 659.903ZM439.102 660.569 437.102 660.569 437.102 659.903 439.102 659.903ZM436.435 660.569 434.435 660.569 434.435 659.903 436.435 659.903ZM433.768 660.569 431.768 660.569 431.768 659.903 433.768 659.903ZM431.102 660.569 429.102 660.569 429.102 659.903 431.102 659.903ZM428.435 660.569 426.435 660.569 426.435 659.903 428.435 659.903ZM425.768 660.569 423.768 660.569 423.768 659.903 425.768 659.903ZM423.102 660.569 421.102 660.569 421.102 659.903 423.102 659.903ZM420.435 660.569 418.435 660.569 418.435 659.903 420.435 659.903ZM417.768 660.569 415.768 660.569 415.768 659.903 417.768 659.903ZM415.102 660.569 413.102 660.569 413.102 659.903 415.102 659.903ZM412.435 660.569 410.435 660.569 410.435 659.903 412.435 659.903ZM409.768 660.569 407.768 660.569 407.768 659.903 409.768 659.903ZM407.102 660.569 405.102 660.569 405.102 659.903 407.102 659.903ZM404.435 660.569 402.435 660.569 402.435 659.903 404.435 659.903ZM401.768 660.569 399.768 660.569 399.768 659.903 401.768 659.903ZM399.102 660.569 397.102 660.569 397.102 659.903 399.102 659.903ZM396.435 660.569 394.435 660.569 394.435 659.903 396.435 659.903ZM393.768 660.569 391.768 660.569 391.768 659.903 393.768 659.903ZM391.102 660.569 389.102 660.569 389.102 659.903 391.102 659.903ZM388.435 660.569 386.435 660.569 386.435 659.903 388.435 659.903ZM385.768 660.569 383.768 660.569 383.768 659.903 385.768 659.903ZM383.102 660.569 381.102 660.569 381.102 659.903 383.102 659.903ZM380.435 660.569 378.435 660.569 378.435 659.903 380.435 659.903ZM377.768 660.569 375.768 660.569 375.768 659.903 377.768 659.903ZM375.102 660.569 373.102 660.569 373.102 659.903 375.102 659.903ZM372.435 660.569 370.435 660.569 370.435 659.903 372.435 659.903ZM369.768 660.569 367.768 660.569 367.768 659.903 369.768 659.903ZM367.102 660.569 365.102 660.569 365.102 659.903 367.102 659.903ZM364.435 660.569 362.435 660.569 362.435 659.903 364.435 659.903ZM361.768 660.569 359.768 660.569 359.768 659.903 361.768 659.903ZM359.102 660.569 357.102 660.569 357.102 659.903 359.102 659.903ZM356.435 660.569 354.435 660.569 354.435 659.903 356.435 659.903ZM353.768 660.569 351.768 660.569 351.768 659.903 353.768 659.903ZM351.102 660.569 349.102 660.569 349.102 659.903 351.102 659.903ZM348.435 660.569 346.435 660.569 346.435 659.903 348.435 659.903ZM345.768 660.569 343.768 660.569 343.768 659.903 345.768 659.903ZM343.102 660.569 341.102 660.569 341.102 659.903 343.102 659.903ZM340.435 660.569 338.435 660.569 338.435 659.903 340.435 659.903ZM337.768 660.569 335.768 660.569 335.768 659.903 337.768 659.903ZM335.102 660.569 333.102 660.569 333.102 659.903 335.102 659.903ZM332.435 660.569 330.435 660.569 330.435 659.903 332.435 659.903ZM329.768 660.569 327.768 660.569 327.768 659.903 329.768 659.903ZM327.102 660.569 325.102 660.569 325.102 659.903 327.102 659.903ZM324.435 660.569 322.435 660.569 322.435 659.903 324.435 659.903ZM321.768 660.569 319.768 660.569 319.768 659.903 321.768 659.903ZM319.102 660.569 317.102 660.569 317.102 659.903 319.102 659.903ZM316.435 660.569 314.435 660.569 314.435 659.903 316.435 659.903ZM313.768 660.569 311.768 660.569 311.768 659.903 313.768 659.903ZM311.102 660.569 309.102 660.569 309.102 659.903 311.102 659.903ZM308.435 660.569 306.435 660.569 306.435 659.903 308.435 659.903ZM305.768 660.569 303.768 660.569 303.768 659.903 305.768 659.903ZM303.102 660.569 301.102 660.569 301.102 659.903 303.102 659.903ZM300.435 660.569 298.435 660.569 298.435 659.903 300.435 659.903ZM297.768 660.569 295.768 660.569 295.768 659.903 297.768 659.903ZM295.102 660.569 293.102 660.569 293.102 659.903 295.102 659.903ZM292.435 660.569 290.435 660.569 290.435 659.903 292.435 659.903ZM289.768 660.569 287.768 660.569 287.768 659.903 289.768 659.903ZM287.102 660.569 285.102 660.569 285.102 659.903 287.102 659.903ZM284.435 660.569 282.435 660.569 282.435 659.903 284.435 659.903ZM281.768 660.569 281.167 660.569 281.167 658.504 281.833 658.504 281.833 660.236 281.5 659.903 281.768 659.903ZM281.167 657.838 281.167 655.838 281.833 655.838 281.833 657.838ZM281.167 655.171 281.167 653.171 281.833 653.171 281.833 655.171ZM281.167 652.504 281.167 650.504 281.833 650.504 281.833 652.504ZM281.167 649.838 281.167 647.838 281.833 647.838 281.833 649.838ZM281.167 647.171 281.167 645.171 281.833 645.171 281.833 647.171ZM281.167 644.504 281.167 642.504 281.833 642.504 281.833 644.504ZM281.167 641.838 281.167 639.838 281.833 639.838 281.833 641.838ZM281.167 639.171 281.167 637.171 281.833 637.171 281.833 639.171ZM281.167 636.504 281.167 634.504 281.833 634.504 281.833 636.504ZM281.167 633.838 281.167 631.838 281.833 631.838 281.833 633.838ZM281.167 631.171 281.167 629.171 281.833 629.171 281.833 631.171ZM281.167 628.504 281.167 626.504 281.833 626.504 281.833 628.504ZM281.167 625.838 281.167 623.838 281.833 623.838 281.833 625.838ZM281.167 623.171 281.167 621.171 281.833 621.171 281.833 623.171ZM281.167 620.504 281.167 618.504 281.833 618.504 281.833 620.504ZM281.167 617.838 281.167 615.838 281.833 615.838 281.833 617.838ZM281.167 615.171 281.167 613.171 281.833 613.171 281.833 615.171ZM281.167 612.504 281.167 610.504 281.833 610.504 281.833 612.504ZM281.167 609.838 281.167 607.838 281.833 607.838 281.833 609.838ZM281.167 607.171 281.167 605.171 281.833 605.171 281.833 607.171ZM281.167 604.504 281.167 602.504 281.833 602.504 281.833 604.504ZM281.167 601.838 281.167 599.838 281.833 599.838 281.833 601.838ZM281.167 599.171 281.167 597.171 281.833 597.171 281.833 599.171ZM281.167 596.504 281.167 594.504 281.833 594.504 281.833 596.504ZM281.167 593.838 281.167 591.838 281.833 591.838 281.833 593.838ZM281.167 591.171 281.167 589.171 281.833 589.171 281.833 591.171ZM281.167 588.504 281.167 587.16 281.833 587.16 281.833 588.504ZM276.545 594.992 281.5 586.499 286.455 594.992C286.547 595.151 286.494 595.355 286.335 595.448 286.176 595.541 285.972 595.487 285.879 595.328L281.212 587.328 281.788 587.328 277.121 595.328C277.029 595.487 276.824 595.541 276.665 595.448 276.506 595.355 276.453 595.151 276.545 594.992Z"/><rect x="715.5" y="379.5" width="399" height="63" stroke="#000000" stroke-width="1.33333" stroke-miterlimit="8" fill="#FFFFFF"/><text font-family="Yu Gothic,Yu Gothic_MSFontService,sans-serif" font-weight="400" font-size="11" transform="translate(849.806 408)">CIModelRepositoryBuilder<tspan font-size="11" x="-125.333" y="13">CreateCIModelRepository</tspan><tspan font-size="11" x="1.66669" y="13">();</tspan></text><rect x="296.5" y="406.5" width="206" height="71" stroke="#000000" stroke-width="1.33333" stroke-miterlimit="8" fill="#FFFFFF"/><text font-family="Yu Gothic,Yu Gothic_MSFontService,sans-serif" font-weight="400" font-size="11" transform="translate(363.407 421)">&lt;&lt;abstract&gt;&gt;<tspan font-size="11" x="-14.3333" y="13">CICOOAofOOAClass</tspan><tspan font-size="11" x="-57.3333" y="25">domainName:string</tspan><tspan font-size="11" x="-57.3333" y="38">className:string</tspan></text><path d="M389.5 491.5 397.5 477.5 405.5 491.5Z" stroke="#000000" stroke-width="1.33333" stroke-miterlimit="8" fill="#FFFFFF" fill-rule="evenodd"/><path d="M0 0 116.268 49.3947" stroke="#000000" stroke-width="0.666667" stroke-miterlimit="8" fill="none" fill-rule="evenodd" transform="matrix(-1 0 0 1 397.768 491.5)"/><text font-family="Yu Gothic,Yu Gothic_MSFontService,sans-serif" font-weight="400" font-size="11" transform="translate(383.521 341)">SuperSub<tspan font-size="11" x="47.8333" y="0">の場合、別途工夫あり</tspan></text><rect x="93.5001" y="314.5" width="231" height="46" stroke="#2F528F" stroke-width="1.33333" stroke-miterlimit="8" fill="#F2F2F2" fill-opacity="0.501961"/><path d="M0.18496-0.27731 38.069 24.9906 37.6991 25.5452-0.18496 0.27731ZM38.9943 21.2004 43.4302 28.9671 34.5553 27.8558Z" fill="#4472C4" transform="matrix(-1 0 0 1 367.93 308.5)"/></g></svg>